#!OML:ASF F:\VICON\USERDATA\INSTALL\rory3\rory3.ASF
:FULLY-SPECIFIED
:DEGREES
1080
root 8.69697 16.8283 28.1497 -327.363 27.6155 363.36
lowerback -19.522 -5.64441 1.30483
upperback -17.2504 -7.21033 1.63881
thorax -8.0822 -3.56714 0.176449
lowerneck -14.0187 0.00612497 -1.82662
upperneck 40.506 -0.284276 2.66958
head 17.1401 0.0611435 1.51606
rclavicle 5.19822e-014 2.5842e-014
rhumerus -28.7233 -69.273 25.8882
rradius 15.8294
rwrist 37.2847
rhand 3.60106 2.73775
rfingers 7.12502
rthumb 29.0348 -25.02
lclavicle 5.19822e-014 2.5842e-014
lhumerus 63.9451 1.79167 18.3585
lradius 29.9489
lwrist -12.3845
lhand 8.82778 23.195
lfingers 7.12502
lthumb 34.0137 49.9757
rfemur -56.9442 3.77772 25.2608
rtibia 38.4212
rfoot -48.1938 -38.8187
rtoes 45.2119
lfemur -10.5635 -3.90466 -22.4598
ltibia 27.8227
lfoot 6.75975 44.8687
ltoes 23.4071
1081
root 8.66821 16.8139 28.1628 -326.798 26.803 364.054
lowerback -20.2452 -5.69665 -0.0759572
upperback -16.574 -7.10932 1.64957
thorax -6.72738 -3.39192 0.817571
lowerneck -15.8606 -0.13294 -2.23086
upperneck 40.497 -0.383763 2.78681
head 17.6225 -0.0254826 1.63988
rclavicle 5.71009e-014 4.17448e-014
rhumerus -34.2416 -73.1891 31.7273
rradius 15.7387
rwrist 40.0444
rhand 3.57636 2.71405
rfingers 7.12502
rthumb 29.0112 -25.0478
lclavicle 5.71009e-014 4.17448e-014
lhumerus 64.6193 3.09281 18.9548
lradius 29.8028
lwrist -12.7093
lhand 8.63156 23.3525
lfingers 7.12502
lthumb 33.8273 50.1744
rfemur -57.5016 5.83514 23.121
rtibia 38.4704
rfoot -50.1544 -39.9457
rtoes 45.7945
lfemur -10.6852 -3.87047 -23.357
ltibia 27.7142
lfoot 2.7449 45.002
ltoes 27.9508
1082
root 8.66296 16.8128 28.1622 -326.694 26.698 364.162
lowerback -20.3917 -5.67926 -0.252983
upperback -16.325 -7.06609 1.65557
thorax -6.3382 -3.35856 0.892478
lowerneck -16.5708 -0.162465 -2.38106
upperneck 40.5508 -0.39986 2.87766
head 17.8435 -0.0422703 1.71421
rclavicle 6.04802e-014 4.37326e-015
rhumerus -46.3294 -77.8608 44.2211
rradius 15.5679
rwrist 44.8916
rhand 3.54779 3.22446
rfingers 7.12502
rthumb 28.9839 -24.5421
lclavicle 6.04802e-014 4.37326e-015
lhumerus 64.815 3.45642 18.6417
lradius 29.8521
lwrist -12.3433
lhand 8.27823 23.9144
lfingers 7.12502
lthumb 33.4915 50.8096
rfemur -57.5486 5.62853 23.1697
rtibia 38.4304
rfoot -49.967 -39.5899
rtoes 46.1192
lfemur -10.7337 -3.94888 -23.4972
ltibia 27.7105
lfoot 15.5977 42.1721
ltoes 9.94589
1083
root 8.6987 16.838 28.135 -327.603 28.0613 363.011
lowerback -19.7496 -5.5143 1.88532
upperback -16.2776 -7.14734 1.80137
thorax -6.85934 -3.58621 -0.0571763
lowerneck -16.4503 -0.143613 -2.37499
upperneck 40.5465 -0.389689 2.9105
head 17.8084 -0.0327382 1.72906
rclavicle -2.25621e-014 -3.85642e-014
rhumerus -62.7893 -80.8095 60.9281
rradius 15.4616
rwrist 49.1565
rhand 3.58975 3.94984
rfingers 7.12502
rthumb 29.024 -23.8098
lclavicle -2.25621e-014 -3.85642e-014
lhumerus 64.6634 3.40477 18.1405
lradius 30.023
lwrist -11.9155
lhand 8.27485 24.281
lfingers 7.12502
lthumb 33.4883 51.1768
rfemur -56.681 1.53071 27.2103
rtibia 38.3188
rfoot -46.2408 -36.8571
rtoes 45.7761
lfemur -10.3712 -4.23935 -21.9921
ltibia 27.7887
lfoot 10.0733 43.7872
ltoes 19.3027
1084
root 8.68527 16.834 28.1434 -327.776 28.0786 362.72
lowerback -20.333 -5.50705 1.89571
upperback -15.7499 -7.16128 1.91207
thorax -5.93354 -3.58639 -0.0473777
lowerneck -17.3972 0.0885631 -1.91803
upperneck 40.4757 -0.0957146 2.71553
head 18.0064 0.131302 1.62064
rclavicle -1.08636e-013 -5.40694e-014
rhumerus -76.8385 -81.8859 74.9367
rradius 15.4316
rwrist 50.755
rhand 3.55465 4.27293
rfingers 7.12502
rthumb 28.9904 -23.4925
lclavicle -1.08636e-013 -5.40694e-014
lhumerus 65.0916 4.30995 18.6409
lradius 29.7856
lwrist -12.4627
lhand 8.4639 24.1499
lfingers 7.12502
lthumb 33.668 51.0068
rfemur -56.5901 2.0396 27.2825
rtibia 38.2347
rfoot -46.3779 -37.3685
rtoes 45.465
lfemur -10.391 -4.07227 -21.6677
ltibia 27.8865
lfoot 5.73542 44.5032
ltoes 24.9319
1085
root 8.68743 16.835 28.1389 -327.687 28.1167 362.896
lowerback -19.9669 -5.48602 1.95169
upperback -16.1817 -7.12265 1.79423
thorax -6.64655 -3.57915 -0.126326
lowerneck -16.7378 0.153691 -1.7846
upperneck 40.6644 -0.0225509 2.6558
head 17.9371 0.174328 1.58246
rclavicle 8.84592e-015 7.95139e-015
rhumerus -53.8484 -79.452 51.7601
rradius 15.4943
rwrist 46.7985
rhand 3.25166 3.80873
rfingers 7.12502
rthumb 28.701 -24.006
lclavicle 8.84592e-015 7.95139e-015
lhumerus 64.9739 3.70727 18.9699
lradius 29.6907
lwrist -12.8533
lhand 8.66346 23.8938
lfingers 7.12502
lthumb 33.8576 50.709
rfemur -56.6334 2.20405 26.9255
rtibia 38.2447
rfoot -46.5735 -37.7147
rtoes 45.0907
lfemur -10.3695 -4.11613 -21.8054
ltibia 27.911
lfoot -4.58331 44.8781
ltoes 35.5733
1086
root 8.68067 16.8329 28.1369 -327.582 27.9591 363.188
lowerback -19.8361 -5.52309 1.66063
upperback -16.3886 -7.12447 1.71998
thorax -6.92799 -3.55755 -0.0193962
lowerneck -16.0647 0.140324 -1.83673
upperneck 40.6036 -0.0230611 2.63635
head 17.7223 0.163812 1.57394
rclavicle 1.59028e-015 -1.98785e-015
rhumerus -43.3096 -77.0502 41.0457
rradius 15.5265
rwrist 43.7465
rhand 3.06438 3.37614
rfingers 7.12502
rthumb 28.5221 -24.4688
lclavicle 1.59028e-015 -1.98785e-015
lhumerus 64.7227 3.3292 18.6525
lradius 29.771
lwrist -12.58
lhand 8.7618 23.7034
lfingers 7.12502
lthumb 33.951 50.4981
rfemur -56.7216 2.50182 26.4052
rtibia 38.3713
rfoot -46.9358 -37.8991
rtoes 45.014
lfemur -10.2388 -4.11805 -22.1124
ltibia 27.748
lfoot -10.2166 44.4809
ltoes 40.1091
1087
root 8.66781 16.8268 28.1433 -327.431 27.6608 363.573
lowerback -19.9143 -5.61468 1.03816
upperback -16.3463 -7.16248 1.70257
thorax -6.75868 -3.52058 0.280569
lowerneck -16.0041 0.162655 -1.88262
upperneck 40.5547 0.0268412 2.64031
head 17.6759 0.177728 1.59153
rclavicle -1.09332e-015 3.1408e-014
rhumerus -37.7228 -75.1593 35.2628
rradius 15.5544
rwrist 41.3512
rhand 2.73324 2.56158
rfingers 7.12502
rthumb 28.2056 -25.336
lclavicle -1.09332e-015 3.1408e-014
lhumerus 64.3736 3.23629 17.59
lradius 30.133
lwrist -11.6077
lhand 8.72725 24.0869
lfingers 7.12502
lthumb 33.9182 50.8888
rfemur -56.8558 2.89216 25.7569
rtibia 38.5625
rfoot -47.2316 -38.1158
rtoes 45.0844
lfemur -10.0813 -4.06735 -22.5474
ltibia 27.4968
lfoot -9.46291 44.7352
ltoes 39.5783
1088
root 8.6448 16.8153 28.1599 -327.248 27.2254 363.784
lowerback -20.1866 -5.69476 0.356994
upperback -16.3166 -7.17135 1.7587
thorax -6.49116 -3.4601 0.676529
lowerneck -15.8908 0.17493 -2.02868
upperneck 40.5278 0.0593421 2.73074
head 17.6288 0.180935 1.66382
rclavicle -1.54555e-014 2.94201e-014
rhumerus -33.8216 -73.4557 31.1571
rradius 15.6155
rwrist 39.2707
rhand 2.53707 1.92595
rfingers 7.12502
rthumb 28.0181 -26.0024
lclavicle -1.54555e-014 2.94201e-014
lhumerus 64.1364 3.23623 17.1137
lradius 30.3216
lwrist -11.2359
lhand 8.49796 24.251
lfingers 7.12502
lthumb 33.7004 51.1008
rfemur -57.1425 4.72254 24.3637
rtibia 38.6858
rfoot -48.8491 -39.4091
rtoes 45.0367
lfemur -10.0736 -3.97425 -22.8533
ltibia 27.315
lfoot -9.31108 44.7852
ltoes 39.3087
1089
root 8.64729 16.8185 28.1602 -327.031 27.189 363.993
lowerback -20.3295 -5.72398 0.250176
upperback -16.4132 -7.18974 1.70939
thorax -6.52745 -3.46142 0.673107
lowerneck -15.1468 0.0272155 -2.38157
upperneck 40.3338 -0.115932 2.86096
head 17.3302 0.0728572 1.74023
rclavicle -7.18607e-014 -5.24792e-014
rhumerus -30.4179 -71.2746 27.5448
rradius 15.6966
rwrist 36.7614
rhand 2.27121 1.50322
rfingers 7.12502
rthumb 27.7639 -26.4664
lclavicle -7.18607e-014 -5.24792e-014
lhumerus 64.1589 3.1643 17.4446
lradius 30.2344
lwrist -11.4759
lhand 8.53426 24.2077
lfingers 7.12502
lthumb 33.7348 51.05
rfemur -57.2902 4.20342 24.4595
rtibia 38.7591
rfoot -48.2977 -39.1437
rtoes 44.7896
lfemur -10.1577 -3.90929 -23.0564
ltibia 27.2282
lfoot -7.74567 44.9666
ltoes 38.2969
